# xmcd
#
# Track frame offsets:
#	150
#	20913
#	42761
#	56573
#	79741
#	107353
#	123919
#	159112
#	176960
#	201911
#	231474
#	251995
#	272187
#	303188
#	329968
#
# Disc length: 4559 seconds
#
# Revision: 0
# Processed by: cddbd v1.5.1PL0 Copyright (c) Steve Scherf et al.
# Submitted via: dBpowerAMP V4.0
#
DISCID=d811cd0f
DTITLE=I Cover The  - Mamani Live
DYEAR=2004
DGENRE=Soul
TTITLE0=I Cover The Waterfront
TTITLE1=Geh´ Jetzt
TTITLE2=Mamani
TTITLE3=Mit Dir
TTITLE4=Im Ghetto von Soweto
TTITLE5=Setho
TTITLE6=Wem Gehört Die Welt
TTITLE7=Loverman
TTITLE8=Vie Frauen
TTITLE9=Sign O´The Times
TTITLE10=Höchste Zeit
TTITLE11=Miscommunication
TTITLE12=Sag´s Mir
TTITLE13=Was Auch Immer
TTITLE14=Intro
EXTD=
EXTT0=
EXTT1=
EXTT2=
EXTT3=
EXTT4=
EXTT5=
EXTT6=
EXTT7=
EXTT8=
EXTT9=
EXTT10=
EXTT11=
EXTT12=
EXTT13=
EXTT14=
PLAYORDER=
